<svg width="9" height="15" viewBox="0 0 9 15" fill="none" xmlns="http://www.w3.org/2000/svg">
<path id="Vector" d="M0.579098 14.003C0.351887 13.7694 0.238281 13.4721 0.238281 13.1111C0.238281 12.7501 0.351887 12.4529 0.579098 12.2193L5.41251 7.2504L0.579098 2.28153C0.351887 2.04795 0.238281 1.75067 0.238281 1.38968C0.238281 1.02869 0.351887 0.731409 0.579098 0.49783C0.80631 0.26425 1.09549 0.147461 1.44663 0.147461C1.79778 0.147461 2.08696 0.26425 2.31417 0.49783L8.01511 6.35855C8.13904 6.48596 8.22704 6.62398 8.27909 6.77262C8.33032 6.92127 8.35593 7.08052 8.35593 7.2504C8.35593 7.42028 8.33032 7.57954 8.27909 7.72818C8.22704 7.87682 8.13904 8.01484 8.01511 8.14225L2.31417 14.003C2.08696 14.2366 1.79778 14.3533 1.44663 14.3533C1.09549 14.3533 0.80631 14.2366 0.579098 14.003Z" fill="#52B4AE"/>
</svg>
