<svg width="18" height="18" viewBox="0 0 18 18" fill="none" xmlns="http://www.w3.org/2000/svg">
<rect width="18" height="18" rx="9" fill="#DF327B"/>
<path d="M9.02079 12.2893C8.87103 12.2893 8.74431 12.249 8.64063 12.1683C8.54847 12.0877 8.50239 11.984 8.50239 11.8573V9.5936H6.23871C6.11199 9.5936 6.00831 9.54752 5.92767 9.45536C5.84703 9.35168 5.80671 9.23072 5.80671 9.09248C5.80671 8.94272 5.84703 8.82176 5.92767 8.7296C6.00831 8.62592 6.11199 8.57408 6.23871 8.57408H8.50239V6.32768C8.50239 6.21248 8.54847 6.1088 8.64063 6.01664C8.74431 5.92448 8.87103 5.8784 9.02079 5.8784C9.17055 5.8784 9.28575 5.92448 9.36639 6.01664C9.45855 6.1088 9.50463 6.21248 9.50463 6.32768V8.57408H11.7683C11.872 8.57408 11.9699 8.62592 12.0621 8.7296C12.1542 8.82176 12.2003 8.94272 12.2003 9.09248C12.2003 9.23072 12.1542 9.35168 12.0621 9.45536C11.9699 9.54752 11.872 9.5936 11.7683 9.5936H9.50463V11.8573C9.50463 11.984 9.45855 12.0877 9.36639 12.1683C9.28575 12.249 9.17055 12.2893 9.02079 12.2893Z" fill="white"/>
</svg>
