<svg width="32" height="32" viewBox="0 0 32 32" fill="none" xmlns="http://www.w3.org/2000/svg">
<g id="Lightbulb">
<path id="Vector" d="M22.0002 28.9993C22.0002 29.2645 21.8948 29.5189 21.7073 29.7064C21.5197 29.8939 21.2654 29.9993 21.0002 29.9993H11.0002C10.7349 29.9993 10.4806 29.8939 10.2931 29.7064C10.1055 29.5189 10.0002 29.2645 10.0002 28.9993C10.0002 28.7341 10.1055 28.4797 10.2931 28.2922C10.4806 28.1046 10.7349 27.9993 11.0002 27.9993H21.0002C21.2654 27.9993 21.5197 28.1046 21.7073 28.2922C21.8948 28.4797 22.0002 28.7341 22.0002 28.9993ZM27.0002 12.9993C27.0045 14.6663 26.6279 16.3123 25.8991 17.8117C25.1704 19.311 24.1087 20.624 22.7952 21.6505C22.5496 21.8388 22.3502 22.0807 22.2125 22.3578C22.0747 22.6349 22.0021 22.9398 22.0002 23.2493V23.9993C22.0002 24.5297 21.7894 25.0384 21.4144 25.4135C21.0393 25.7886 20.5306 25.9993 20.0002 25.9993H12.0002C11.4697 25.9993 10.961 25.7886 10.586 25.4135C10.2109 25.0384 10.0002 24.5297 10.0002 23.9993V23.2493C9.99996 22.9435 9.92965 22.6419 9.79465 22.3676C9.65965 22.0932 9.46355 21.8535 9.22141 21.6668C7.91116 20.6463 6.85022 19.3412 6.11889 17.8502C5.38755 16.3591 5.00499 14.7213 5.00016 13.0605C4.96766 7.10304 9.78266 2.14179 15.7352 1.99929C17.2018 1.96394 18.6608 2.22235 20.0261 2.75931C21.3914 3.29626 22.6355 4.10091 23.6852 5.1259C24.7349 6.15089 25.5689 7.37549 26.1382 8.72765C26.7075 10.0798 27.0006 11.5322 27.0002 12.9993ZM25.0002 12.9993C25.0005 11.7989 24.7607 10.6105 24.2949 9.50415C23.8291 8.39779 23.1466 7.39581 22.2877 6.55718C21.4288 5.71854 20.4108 5.06021 19.2936 4.62092C18.1765 4.18163 16.9827 3.97028 15.7827 3.99929C10.9077 4.11429 6.97391 8.17304 7.00016 13.048C7.00473 14.4063 7.31816 15.7457 7.91673 16.9649C8.5153 18.1841 9.38334 19.2513 10.4552 20.0855C10.937 20.4601 11.3267 20.9399 11.5945 21.4883C11.8623 22.0367 12.001 22.639 12.0002 23.2493V23.9993H20.0002V23.2493C20.0016 22.6373 20.1427 22.0337 20.4128 21.4845C20.683 20.9354 21.075 20.4552 21.5589 20.0805C22.634 19.2403 23.503 18.1656 24.0994 16.9383C24.6958 15.7111 25.0039 14.3638 25.0002 12.9993ZM22.9864 11.8318C22.7271 10.3834 22.0303 9.04924 20.9897 8.00891C19.9492 6.96858 18.6149 6.27203 17.1664 6.01304C17.0369 5.9912 16.9043 5.9951 16.7763 6.02449C16.6483 6.05388 16.5274 6.1082 16.4203 6.18435C16.3133 6.26049 16.2223 6.35697 16.1526 6.46827C16.0829 6.57957 16.0357 6.70352 16.0139 6.83304C15.9921 6.96255 15.996 7.0951 16.0254 7.22311C16.0548 7.35113 16.1091 7.4721 16.1852 7.57911C16.2614 7.68613 16.3578 7.77711 16.4691 7.84684C16.5804 7.91658 16.7044 7.9637 16.8339 7.98554C18.9052 8.33429 20.6627 10.0918 21.0139 12.1668C21.0535 12.3997 21.1742 12.6111 21.3548 12.7634C21.5353 12.9158 21.7639 12.9994 22.0002 12.9993C22.0567 12.9989 22.1131 12.9944 22.1689 12.9855C22.4303 12.9409 22.6633 12.7943 22.8166 12.5779C22.9699 12.3616 23.031 12.0932 22.9864 11.8318Z" fill="black"/>
</g>
</svg>
