<svg width="16" height="17" viewBox="0 0 16 17" fill="none" xmlns="http://www.w3.org/2000/svg">
<path id="Vector" d="M8 5.59091C6.39273 5.59091 5.09091 6.89273 5.09091 8.5C5.09091 10.1073 6.39273 11.4091 8 11.4091C9.60727 11.4091 10.9091 10.1073 10.9091 8.5C10.9091 6.89273 9.60727 5.59091 8 5.59091ZM14.5018 7.77273C14.3371 6.29791 13.6757 4.92294 12.6264 3.8736C11.5771 2.82425 10.2021 2.16292 8.72727 1.99818V0.5H7.27273V1.99818C5.79791 2.16292 4.42294 2.82425 3.3736 3.8736C2.32425 4.92294 1.66292 6.29791 1.49818 7.77273H0V9.22727H1.49818C1.66292 10.7021 2.32425 12.0771 3.3736 13.1264C4.42294 14.1757 5.79791 14.8371 7.27273 15.0018V16.5H8.72727V15.0018C10.2021 14.8371 11.5771 14.1757 12.6264 13.1264C13.6757 12.0771 14.3371 10.7021 14.5018 9.22727H16V7.77273H14.5018ZM8 13.5909C5.18545 13.5909 2.90909 11.3145 2.90909 8.5C2.90909 5.68545 5.18545 3.40909 8 3.40909C10.8145 3.40909 13.0909 5.68545 13.0909 8.5C13.0909 11.3145 10.8145 13.5909 8 13.5909Z" fill="#A3A3A3"/>
</svg>
