<svg width="16" height="16" viewBox="0 0 16 16" fill="none" xmlns="http://www.w3.org/2000/svg">
<g id="ic:round-local-phone">
<path id="Vector" d="M13.7263 10.3651L11.8881 10.1552C11.672 10.1299 11.4529 10.1538 11.2473 10.2252C11.0418 10.2967 10.8551 10.4138 10.7013 10.5677L9.36971 11.8993C7.31532 10.8545 5.6455 9.18465 4.60067 7.13025L5.93947 5.79144C6.25065 5.48026 6.40263 5.04605 6.35197 4.6046L6.1421 2.78092C6.10107 2.42789 5.93165 2.10228 5.66609 1.86607C5.40053 1.62987 5.05738 1.49958 4.70198 1.5H3.45002C2.63226 1.5 1.952 2.18026 2.00266 2.99802C2.38621 9.17827 7.32894 14.1138 13.5019 14.4973C14.3197 14.548 14.9999 13.8677 14.9999 13.05V11.798C15.0072 11.0671 14.4572 10.452 13.7263 10.3651Z" fill="#A3A3A3"/>
</g>
</svg>
