<svg width="35" height="35" viewBox="0 0 35 35" fill="none" xmlns="http://www.w3.org/2000/svg">
<g id="Page/Next">
<rect width="34.6442" height="34.6442" transform="translate(0.355957)" fill="white"/>
<path id="Vector" d="M13.4176 23.8869C13.3038 23.7721 13.2135 23.6357 13.1519 23.4855C13.0903 23.3354 13.0586 23.1745 13.0586 23.0119C13.0586 22.8494 13.0903 22.6884 13.1519 22.5383C13.2135 22.3882 13.3038 22.2518 13.4176 22.137L18.1807 17.3215L13.4176 12.5061C13.1881 12.2741 13.0591 11.9594 13.0591 11.6312C13.0591 11.303 13.1881 10.9883 13.4176 10.7562C13.6471 10.5242 13.9584 10.3938 14.2831 10.3938C14.6077 10.3938 14.919 10.5242 15.1485 10.7562L20.7832 16.4528C20.897 16.5676 20.9873 16.704 21.0489 16.8541C21.1105 17.0043 21.1422 17.1652 21.1422 17.3278C21.1422 17.4903 21.1105 17.6512 21.0489 17.8014C20.9873 17.9515 20.897 18.0879 20.7832 18.2027L15.1485 23.8993C14.682 24.3709 13.8964 24.3709 13.4176 23.8869Z" fill="#B44DB8"/>
</g>
</svg>
