<svg width="32" height="32" viewBox="0 0 32 32" fill="none" xmlns="http://www.w3.org/2000/svg">
<g id="NotePencil">
<path id="Vector" d="M28.7075 7.29329L24.7075 3.29329C24.6146 3.20031 24.5043 3.12655 24.3829 3.07623C24.2615 3.0259 24.1314 3 24 3C23.8686 3 23.7385 3.0259 23.6171 3.07623C23.4957 3.12655 23.3854 3.20031 23.2925 3.29329L11.2925 15.2933C11.1997 15.3862 11.1261 15.4965 11.0759 15.6179C11.0257 15.7393 10.9999 15.8694 11 16.0008V20.0008C11 20.266 11.1054 20.5204 11.2929 20.7079C11.4804 20.8954 11.7348 21.0008 12 21.0008H16C16.1314 21.0009 16.2615 20.9751 16.3829 20.9249C16.5042 20.8747 16.6146 20.8011 16.7075 20.7083L28.7075 8.70829C28.8005 8.61541 28.8742 8.50513 28.9246 8.38373C28.9749 8.26233 29.0008 8.1322 29.0008 8.00079C29.0008 7.86937 28.9749 7.73924 28.9246 7.61785C28.8742 7.49645 28.8005 7.38616 28.7075 7.29329ZM15.5863 19.0008H13V16.4145L21 8.41454L23.5863 11.0008L15.5863 19.0008ZM25 9.58704L22.4137 7.00079L24 5.41454L26.5863 8.00079L25 9.58704ZM28 16.0008V26.0008C28 26.5312 27.7893 27.0399 27.4142 27.415C27.0391 27.7901 26.5304 28.0008 26 28.0008H6C5.46957 28.0008 4.96086 27.7901 4.58579 27.415C4.21071 27.0399 4 26.5312 4 26.0008V6.00079C4 5.47035 4.21071 4.96165 4.58579 4.58657C4.96086 4.2115 5.46957 4.00079 6 4.00079H16C16.2652 4.00079 16.5196 4.10614 16.7071 4.29368C16.8946 4.48122 17 4.73557 17 5.00079C17 5.266 16.8946 5.52036 16.7071 5.70789C16.5196 5.89543 16.2652 6.00079 16 6.00079H6V26.0008H26V16.0008C26 15.7356 26.1054 15.4812 26.2929 15.2937C26.4804 15.1061 26.7348 15.0008 27 15.0008C27.2652 15.0008 27.5196 15.1061 27.7071 15.2937C27.8946 15.4812 28 15.7356 28 16.0008Z" fill="black"/>
</g>
</svg>
