<svg width="20" height="21" viewBox="0 0 20 21" fill="none" xmlns="http://www.w3.org/2000/svg">
<g id="noun-notification-4869877 1" clip-path="url(#clip0_285_3706)">
<g id="Group">
<path id="Vector" d="M17.9364 12.4751C17.0825 11.196 16.5572 9.7259 16.4072 8.19531L16.3017 7.19338H16.3018C16.132 5.5425 15.3561 4.01312 14.1239 2.90121C12.8919 1.78926 11.2912 1.17383 9.63139 1.17383C7.97158 1.17383 6.37098 1.78926 5.13885 2.90121C3.90667 4.01316 3.13076 5.54253 2.96097 7.19338L2.85563 8.19531C2.70424 9.72292 2.179 11.1897 1.3264 12.4664C0.933003 13.0521 0.766605 13.7609 0.858391 14.4605C0.95005 15.1599 1.2936 15.802 1.82454 16.2665C2.35553 16.7309 3.03773 16.9859 3.74318 16.9835H15.5192C16.2229 16.9844 16.9027 16.7295 17.4322 16.2662C17.9617 15.8028 18.3048 15.163 18.3975 14.4655C18.4902 13.7681 18.3262 13.0607 17.936 12.4752L17.9364 12.4751Z" fill="#BDBDBD"/>
<path id="Vector_2" d="M6.61719 18.7412C7.02132 19.4562 7.66646 20.0043 8.43741 20.2875C9.20835 20.5709 10.0549 20.5709 10.8258 20.2875C11.5968 20.0043 12.2419 19.4563 12.646 18.7412H6.61719Z" fill="#BDBDBD"/>
</g>
</g>
<defs>
<clipPath id="clip0_285_3706">
<rect width="20" height="20" fill="white" transform="translate(0 0.5)"/>
</clipPath>
</defs>
</svg>
