<svg width="19" height="19" viewBox="0 0 19 19" fill="none" xmlns="http://www.w3.org/2000/svg">
<path d="M16.3579 6.67123L12.2883 2.64384L13.6289 1.30137C13.9959 0.93379 14.4469 0.75 14.9819 0.75C15.5162 0.75 15.9669 0.93379 16.3339 1.30137L17.6745 2.64384C18.0415 3.01142 18.233 3.45507 18.249 3.97479C18.265 4.49388 18.0894 4.93721 17.7224 5.30479L16.3579 6.67123ZM1.70754 18.25C1.43624 18.25 1.20898 18.1579 1.02577 17.9738C0.841924 17.7904 0.75 17.5628 0.75 17.2911V14.5822C0.75 14.4543 0.773938 14.3306 0.821815 14.2111C0.869692 14.0909 0.941508 13.9829 1.03726 13.887L10.8999 4.01027L14.9694 8.08562L5.1068 17.9623C5.01104 18.0582 4.90348 18.1301 4.78411 18.1781C4.6641 18.226 4.54025 18.25 4.41258 18.25H1.70754Z" fill="white"/>
</svg>
