<svg width="25" height="25" viewBox="0 0 25 25" fill="none" xmlns="http://www.w3.org/2000/svg">
<g clip-path="url(#clip0_285_2810)">
<rect width="25" height="25" rx="12.5" fill="#DF327B"/>
<path d="M13.232 16.624C13.024 16.624 12.848 16.568 12.704 16.456C12.576 16.344 12.512 16.2 12.512 16.024V12.88H9.368C9.192 12.88 9.048 12.816 8.936 12.688C8.824 12.544 8.768 12.376 8.768 12.184C8.768 11.976 8.824 11.808 8.936 11.68C9.048 11.536 9.192 11.464 9.368 11.464H12.512V8.344C12.512 8.184 12.576 8.04 12.704 7.912C12.848 7.784 13.024 7.72 13.232 7.72C13.44 7.72 13.6 7.784 13.712 7.912C13.84 8.04 13.904 8.184 13.904 8.344V11.464H17.048C17.192 11.464 17.328 11.536 17.456 11.68C17.584 11.808 17.648 11.976 17.648 12.184C17.648 12.376 17.584 12.544 17.456 12.688C17.328 12.816 17.192 12.88 17.048 12.88H13.904V16.024C13.904 16.2 13.84 16.344 13.712 16.456C13.6 16.568 13.44 16.624 13.232 16.624Z" fill="white"/>
</g>
<defs>
<clipPath id="clip0_285_2810">
<rect width="25" height="25" rx="12.5" fill="white"/>
</clipPath>
</defs>
</svg>
