<svg width="35" height="35" viewBox="0 0 35 35" fill="none" xmlns="http://www.w3.org/2000/svg">
<g id="Page/Previouse">
<rect width="34.6442" height="34.6442" transform="translate(34.644 34.644) rotate(-180)" fill="white"/>
<path id="Vector" d="M20.4277 23.8864C20.5415 23.7716 20.6318 23.6352 20.6934 23.4851C20.755 23.3349 20.7867 23.174 20.7867 23.0114C20.7867 22.8489 20.755 22.6879 20.6934 22.5378C20.6318 22.3877 20.5415 22.2513 20.4277 22.1365L15.6646 17.3211L20.4277 12.5056C20.6573 12.2736 20.7862 11.9589 20.7862 11.6307C20.7862 11.3025 20.6573 10.9878 20.4277 10.7557C20.1982 10.5237 19.8869 10.3933 19.5623 10.3933C19.2377 10.3933 18.9263 10.5237 18.6968 10.7557L13.0621 16.4523C12.9483 16.5671 12.858 16.7035 12.7964 16.8536C12.7348 17.0038 12.7031 17.1647 12.7031 17.3273C12.7031 17.4898 12.7348 17.6508 12.7964 17.8009C12.858 17.951 12.9483 18.0874 13.0621 18.2022L18.6968 23.8988C19.1633 24.3704 19.949 24.3704 20.4277 23.8864Z" fill="#C5C5C5"/>
</g>
</svg>
