<svg width="17" height="10" viewBox="0 0 17 10" fill="none" xmlns="http://www.w3.org/2000/svg">
<path id="Vector" d="M16.5 2.5H5.5M3.5 2.5H0.5M11.5 7.5H0.5M16.5 7.5H13.5M4.5 0.5C4.76522 0.5 5.01957 0.605357 5.20711 0.792893C5.39464 0.98043 5.5 1.23478 5.5 1.5V3.5C5.5 3.76522 5.39464 4.01957 5.20711 4.20711C5.01957 4.39464 4.76522 4.5 4.5 4.5C4.23478 4.5 3.98043 4.39464 3.79289 4.20711C3.60536 4.01957 3.5 3.76522 3.5 3.5V1.5C3.5 1.23478 3.60536 0.98043 3.79289 0.792893C3.98043 0.605357 4.23478 0.5 4.5 0.5ZM12.5 5.5C12.7652 5.5 13.0196 5.60536 13.2071 5.79289C13.3946 5.98043 13.5 6.23478 13.5 6.5V8.5C13.5 8.76522 13.3946 9.01957 13.2071 9.20711C13.0196 9.39464 12.7652 9.5 12.5 9.5C12.2348 9.5 11.9804 9.39464 11.7929 9.20711C11.6054 9.01957 11.5 8.76522 11.5 8.5V6.5C11.5 6.23478 11.6054 5.98043 11.7929 5.79289C11.9804 5.60536 12.2348 5.5 12.5 5.5Z" stroke="black" stroke-linecap="round" stroke-linejoin="round"/>
</svg>
