<svg width="86" height="86" viewBox="0 0 86 86" fill="none" xmlns="http://www.w3.org/2000/svg">
<path opacity="0.32" d="M42.9998 78.8333C62.79 78.8333 78.8332 62.7902 78.8332 43C78.8332 23.2098 62.79 7.16663 42.9998 7.16663C23.2096 7.16663 7.1665 23.2098 7.1665 43C7.1665 62.7902 23.2096 78.8333 42.9998 78.8333Z" fill="#83C303"/>
<path d="M39.4172 57.334C38.4999 57.334 37.5826 56.9828 36.8838 56.2841L26.1338 45.5341C24.7327 44.133 24.7327 41.8683 26.1338 40.4672C27.5349 39.0662 29.7996 39.0662 31.2007 40.4672L39.4172 48.6838L54.8005 33.3006C56.2016 31.8995 58.4662 31.8995 59.8673 33.3006C61.2684 34.7017 61.2684 36.9663 59.8673 38.3674L41.9507 56.2841C41.2519 56.9828 40.3346 57.334 39.4172 57.334Z" fill="#83C303"/>
</svg>
