<svg width="24" height="24" viewBox="0 0 24 24" fill="none" xmlns="http://www.w3.org/2000/svg">
<path d="M17.5001 18.25C17.3012 18.25 17.1104 18.171 16.9698 18.0303C16.8291 17.8896 16.7501 17.6989 16.7501 17.5C16.7501 17.3011 16.8291 17.1103 16.9698 16.9696C17.1104 16.829 17.3012 16.75 17.5001 16.75C19.1601 16.75 19.7501 15.92 19.7501 13.57C19.6778 12.7323 19.3122 11.9469 18.7177 11.3524C18.1231 10.7578 17.3378 10.3922 16.5001 10.32C16.1595 10.3286 15.8223 10.3893 15.5001 10.5C15.4028 10.5407 15.298 10.5601 15.1926 10.5569C15.0872 10.5538 14.9837 10.5282 14.889 10.4818C14.7943 10.4354 14.7106 10.3693 14.6435 10.2879C14.5765 10.2065 14.5276 10.1118 14.5001 10.01C14.1195 8.82082 13.3276 7.80624 12.2664 7.14831C11.2053 6.49038 9.94438 6.23217 8.71002 6.42004C7.47567 6.6079 6.34868 7.22953 5.5313 8.17336C4.71393 9.1172 4.25969 10.3214 4.25011 11.57C4.25011 15.01 5.01011 16.75 6.50011 16.75C6.69902 16.75 6.88978 16.829 7.03044 16.9696C7.17109 17.1103 7.25011 17.3011 7.25011 17.5C7.25011 17.6989 7.17109 17.8896 7.03044 18.0303C6.88978 18.171 6.69902 18.25 6.50011 18.25C4.00011 18.25 2.75011 16 2.75011 11.57C2.71887 9.99373 3.24036 8.45627 4.22411 7.2243C5.20786 5.99233 6.59182 5.14357 8.1359 4.82525C9.67999 4.50693 11.2868 4.73914 12.6776 5.48159C14.0684 6.22404 15.1554 7.42989 15.7501 8.88997C16.0141 8.8423 16.2819 8.81887 16.5501 8.81997C17.7851 8.89574 18.9497 9.42051 19.8247 10.2954C20.6996 11.1703 21.2243 12.335 21.3001 13.57C21.2501 14.85 21.2501 18.25 17.5001 18.25Z" fill="#B6B6B6"/>
<path d="M14.83 15.65C14.6316 15.6477 14.4417 15.5689 14.3 15.43L12 13.13L9.70001 15.43C9.55784 15.5625 9.36979 15.6346 9.17549 15.6312C8.98119 15.6277 8.7958 15.549 8.65839 15.4116C8.52098 15.2742 8.44227 15.0888 8.43884 14.8945C8.43541 14.7002 8.50753 14.5122 8.64001 14.37L11.47 11.54C11.539 11.4692 11.6214 11.413 11.7124 11.3746C11.8034 11.3362 11.9012 11.3164 12 11.3164C12.0988 11.3164 12.1966 11.3362 12.2876 11.3746C12.3787 11.413 12.4611 11.4692 12.53 11.54L15.36 14.37C15.5005 14.5106 15.5794 14.7012 15.5794 14.9C15.5794 15.0987 15.5005 15.2894 15.36 15.43C15.2172 15.5672 15.028 15.6457 14.83 15.65Z" fill="#B6B6B6"/>
<path d="M12 19.18C11.8011 19.18 11.6103 19.101 11.4697 18.9603C11.329 18.8197 11.25 18.6289 11.25 18.43V12.07C11.25 11.8711 11.329 11.6803 11.4697 11.5397C11.6103 11.399 11.8011 11.32 12 11.32C12.1989 11.32 12.3897 11.399 12.5303 11.5397C12.671 11.6803 12.75 11.8711 12.75 12.07V18.43C12.75 18.6289 12.671 18.8197 12.5303 18.9603C12.3897 19.101 12.1989 19.18 12 19.18Z" fill="#B6B6B6"/>
</svg>
