<svg width="86" height="86" viewBox="0 0 86 86" fill="none" xmlns="http://www.w3.org/2000/svg">
<path opacity="0.2" d="M43 83.6111C65.4289 83.6111 83.6111 65.4289 83.6111 43C83.6111 20.5711 65.4289 2.38892 43 2.38892C20.5711 2.38892 2.38892 20.5711 2.38892 43C2.38892 65.4289 20.5711 83.6111 43 83.6111Z" fill="#E1B300"/>
<g clip-path="url(#clip0_285_2714)">
<path d="M47.3522 29.4762C46.1561 27.4152 44.5281 26.2786 42.768 26.2786C41.0079 26.2786 39.3788 27.4152 38.1827 29.4762L24.9019 52.3519C23.6896 54.4595 23.5597 56.6482 24.5447 58.3553C25.4821 59.979 27.3212 60.9131 29.5933 60.9175H55.9427C58.218 60.9131 60.0604 59.9822 60.9946 58.3618C61.9742 56.6655 61.8421 54.4854 60.6319 52.3811L47.3522 29.4762ZM60.0582 57.8205C59.3211 59.0978 57.8208 59.8317 55.9405 59.835H29.5944C27.7207 59.8317 26.2225 59.0946 25.4821 57.814C24.6952 56.4501 24.8261 54.6565 25.8393 52.8931L39.119 30.0196C40.1138 28.3049 41.4095 27.361 42.768 27.361C44.1265 27.361 45.4222 28.3049 46.4159 30.0196L59.6956 52.9213C60.7077 54.6814 60.8398 56.4674 60.0582 57.8205Z" fill="#E1B300" stroke="#E1B300" stroke-width="2.38889"/>
<path d="M42.7686 47.9279C42.9122 47.9279 43.0498 47.8708 43.1513 47.7693C43.2528 47.6678 43.3099 47.5302 43.3099 47.3866V36.562C43.3099 36.4184 43.2528 36.2808 43.1513 36.1793C43.0498 36.0778 42.9122 36.0208 42.7686 36.0208C42.6251 36.0208 42.4874 36.0778 42.3859 36.1793C42.2844 36.2808 42.2274 36.4184 42.2274 36.562V47.3866C42.2274 47.5302 42.2844 47.6678 42.3859 47.7693C42.4874 47.8708 42.6251 47.9279 42.7686 47.9279ZM42.6994 50.634C41.5054 50.634 40.5344 51.605 40.5344 52.799C40.5344 53.9929 41.5054 54.9639 42.6994 54.9639C43.8933 54.9639 44.8643 53.9929 44.8643 52.799C44.8643 51.605 43.8933 50.634 42.6994 50.634ZM42.6994 53.8814C42.4206 53.869 42.1575 53.7495 41.9647 53.5478C41.7718 53.3462 41.6642 53.078 41.6642 52.799C41.6642 52.52 41.7718 52.2517 41.9647 52.0501C42.1575 51.8485 42.4206 51.729 42.6994 51.7165C42.9781 51.729 43.2412 51.8485 43.434 52.0501C43.6269 52.2517 43.7345 52.52 43.7345 52.799C43.7345 53.078 43.6269 53.3462 43.434 53.5478C43.2412 53.7495 42.9781 53.869 42.6994 53.8814Z" fill="#E1B300" stroke="#E1B300" stroke-width="2.38889"/>
</g>
<defs>
<clipPath id="clip0_285_2714">
<rect width="41.8056" height="38.2222" fill="white" transform="translate(21.5 23.8889)"/>
</clipPath>
</defs>
</svg>
